<svg version="1.1" xmlns="http://www.w3.org/2000/svg" xmlns:xlink="http://www.w3.org/1999/xlink" x="0px" y="0px"
	 width="414px" height="422.477px" viewBox="0 0 414 422.477" style="fill:#B5B5C0;">
<path d="M386.26,191.438c-61.048-61.227-102.232-92.316-163.3-153.524c-5.11-5.124-10.269-9.871-17.51-11.647
	c-1.666,0-3.334,0-5,0c-2.63,0.971-5.4,1.67-7.865,2.958c-13.412,7.001-15.499,24.195-4.26,35.447
	c50.164,50.222,75.374,70.399,125.563,120.599c1.307,1.31,2.549,2.686,4.541,4.791c-3.341,0-5.328,0-7.316,0
	c-70.512,0-222.024,0-292.537,0v43.348c70.729,0.001,224.459,0.01,295.188,0.01c1.871,0,3.741,0,5.612,0
	c0.286,0.578,0.571,1.154,0.858,1.732c-1.493,1.059-3.174,1.93-4.451,3.203c-28.456,28.336-23.866,26.717-52.288,55.09
	c-21.815,21.777-43.703,43.486-65.427,65.357c-11.526,11.605-8.861,28.324,5.474,36.031c0.687,0.369,1.274,0.916,1.909,1.379
	c4.666,0,9.332,0,13.998,0c4.16-3.234,8.719-6.07,12.422-9.764c61.552-61.383,93.023-92.848,154.404-154.401
	c4.154-4.166,7.451-9.187,11.147-13.808c0-4.334,0-8.666,0-13C393.723,200.619,390.416,195.605,386.26,191.438z"/>
</svg>
